<svg width="37" height="37" viewBox="0 0 37 37" fill="none" xmlns="http://www.w3.org/2000/svg">
<g id="Layer_1" clip-path="url(#clip0_1_92)">
<path id="Vector" d="M29.9605 1.94489C27.7266 0.678772 25.1658 0.027705 22.2835 0H14.5653C13.4883 0 12.6145 0.881018 12.6145 1.96705V5.54654C12.6145 6.47188 11.9743 7.26702 11.0786 7.46649C9.6333 7.78787 8.28969 8.30318 7.045 9.00966C4.81115 10.2785 3.08013 12.0461 1.84918 14.3124C0.615476 16.5787 0 19.1802 0 22.1169C0 25.0536 0.615476 27.5997 1.84368 29.8355C3.07463 32.0741 4.80566 33.8195 7.03951 35.0745C9.27336 36.3295 11.8314 36.9723 14.7165 37H22.4374C23.5145 37 24.3882 36.119 24.3882 35.0329V31.459C24.3882 30.5309 25.0312 29.7358 25.9297 29.539C27.3722 29.2204 28.7158 28.7134 29.9605 28.0153C32.1943 26.7602 33.9281 25.0148 35.1563 22.7763C36.3873 20.5377 37.0028 17.9639 37.0028 15.0577C37.0028 12.1514 36.3873 9.51943 35.1563 7.25316C33.9254 4.9869 32.1943 3.21932 29.9605 1.95043V1.94489ZM28.7653 19.1608C22.8166 20.8923 20.874 22.8511 19.1567 28.8492C18.9671 29.5086 18.0329 29.5086 17.8433 28.8492C16.126 22.8511 14.1834 20.8923 8.23474 19.1608C7.57805 18.9696 7.57805 18.0276 8.23474 17.8365C14.1834 16.1049 16.126 14.1462 17.8433 8.14803C18.0329 7.48589 18.9671 7.48589 19.1567 8.14803C20.874 14.1462 22.8166 16.1049 28.7653 17.8365C29.422 18.0276 29.422 18.9696 28.7653 19.1608Z" fill="#D9D9D9"/>
</g>
<defs>
<clipPath id="clip0_1_92">
<rect width="37" height="37" fill="white"/>
</clipPath>
</defs>
</svg>
