<svg width="276" height="42" viewBox="0 0 276 42" fill="none" xmlns="http://www.w3.org/2000/svg">
<path fill-rule="evenodd" clip-rule="evenodd" d="M33.8483 2.2061C31.3246 0.769936 28.4315 0.031426 25.1752 0H16.4554C15.2386 0 14.2514 0.999345 14.2514 2.23124V6.29148C14.2514 7.3411 13.5282 8.24303 12.5162 8.46929C10.8834 8.83384 9.36541 9.41836 7.9592 10.2197C5.43548 11.659 3.47982 13.664 2.08914 16.2346C0.695344 18.8053 0 21.7562 0 25.0873C0 28.4185 0.695344 31.3065 2.08293 33.8426C3.47361 36.3818 5.42927 38.3617 7.95299 39.7853C10.4767 41.2089 13.3667 41.9379 16.6262 41.9694H25.349C26.5659 41.9694 27.553 40.97 27.553 39.7381V35.6842C27.553 34.6314 28.2794 33.7295 29.2945 33.5064C30.9242 33.145 32.4421 32.5699 33.8483 31.7779C36.3721 30.3543 38.3308 28.3745 39.7184 25.8353C41.1091 23.2961 41.8044 20.3766 41.8044 17.08C41.8044 13.7834 41.1091 10.798 39.7184 8.22731C38.3277 5.65667 36.3721 3.6517 33.8483 2.21239V2.2061ZM32.498 21.7342C25.7774 23.6983 23.5827 25.9201 21.6426 32.7238C21.4284 33.4718 20.3729 33.4718 20.1588 32.7238C18.2186 25.9201 16.0239 23.6983 9.30332 21.7342C8.56142 21.5174 8.56142 20.4489 9.30332 20.232C16.0239 18.2679 18.2186 16.0461 20.1588 9.24237C20.3729 8.49129 21.4284 8.49129 21.6426 9.24237C23.5827 16.0461 25.7774 18.2679 32.498 20.232C33.2399 20.4489 33.2399 21.5174 32.498 21.7342ZM206.107 27.8562H192.573C189.86 27.8562 189.248 27.1617 189.248 24.5785V24.0788C189.248 23.5194 189.686 23.0638 190.229 23.0638H198.79C199.334 23.0638 199.771 22.6112 199.771 22.0487V20.2637C199.771 19.7043 199.334 19.2487 198.79 19.2487H190.229C189.686 19.2487 189.248 18.7961 189.248 18.2336V17.7968C189.248 15.3047 189.888 14.4876 192.573 14.4876H206.054C206.594 14.4876 207.035 14.0351 207.035 13.4726V11.433C207.035 10.8736 206.598 10.418 206.054 10.418H192.573C186.442 10.418 184.645 12.3727 184.645 17.7936V24.5408C184.645 29.9649 186.445 31.9165 192.573 31.9165H206.107C206.647 31.9165 207.088 31.4639 207.088 30.9014V28.8619C207.088 28.3025 206.65 27.8468 206.107 27.8468V27.8562ZM270.6 11.3911C271.119 10.7123 271.606 10.4043 272.674 10.4043C274.077 10.4043 275.176 10.9888 275.176 12.3181V30.9349C275.176 31.4817 274.735 31.9279 274.195 31.9279H271.889C271.345 31.9279 270.908 31.4817 270.908 30.9349V20.9948C270.908 20.0458 269.719 19.6372 269.148 20.3915L260.751 31.4943C260.263 32.1133 259.621 32.3899 258.708 32.3899C257.796 32.3899 257.153 32.1133 256.666 31.4943L248.3 20.3978C247.732 19.6435 246.54 20.0521 246.54 21.0011V30.9349C246.54 31.4817 246.102 31.9279 245.559 31.9279H243.311C242.768 31.9279 242.33 31.4817 242.33 30.9349V12.3213C242.33 10.9951 243.398 10.4074 244.832 10.4074C245.928 10.4074 246.509 10.684 247.027 11.3942L257.988 26.1236C258.379 26.6452 259.158 26.6484 259.552 26.1236L270.6 11.3911ZM228.455 12.5561C227.722 11.3525 226.837 10.4883 224.978 10.4883C223.118 10.4883 222.203 11.3525 221.47 12.5561L210.338 30.4846C209.929 31.1446 210.397 32.0056 211.17 32.0056H214.184C214.526 32.0056 214.843 31.8265 215.02 31.5311L224.056 16.6163C224.438 15.9847 225.344 15.9847 225.726 16.6163L234.818 31.5342C234.998 31.8265 235.312 32.0056 235.653 32.0056H238.702C239.471 32.0056 239.943 31.1477 239.534 30.4846L228.455 12.553V12.5561ZM89.1002 10.4883C90.9596 10.4883 91.8443 11.3525 92.5769 12.5561V12.553L103.656 30.4846C104.063 31.1477 103.594 32.0056 102.824 32.0056H99.7725C99.431 32.0056 99.1175 31.8265 98.9375 31.5342L89.8452 16.6163C89.4634 15.9847 88.557 15.9847 88.1752 16.6163L79.1388 31.5311C78.9619 31.8265 78.6452 32.0056 78.3038 32.0056H75.2896C74.5197 32.0056 74.051 31.1446 74.4607 30.4846L85.5925 12.5561C86.3251 11.3525 87.2408 10.4883 89.1002 10.4883ZM139.95 10.4248L128.58 10.3965C128.213 10.3996 127.918 10.7045 127.918 11.0784V31.279C127.918 31.6561 128.22 31.961 128.589 31.961H139.718L139.749 31.9621C139.841 31.9654 139.979 31.9704 140.158 31.9704C141.707 31.9704 146.302 31.7033 149.406 28.7147C151.361 26.8323 152.352 24.3119 152.352 21.2196C152.352 18.1273 151.402 15.5063 149.527 13.6271C148.021 12.1155 145.141 10.3399 139.95 10.4279V10.4248ZM146.208 25.2264C144.368 27.0114 141.031 27.2502 139.907 27.1905H133.267C132.898 27.1874 132.597 26.8794 132.597 26.5023V15.9463C132.597 15.5723 132.888 15.2675 133.258 15.2612C135.825 15.2329 139.212 15.1984 139.817 15.1984H140.034C143.595 15.1387 145.38 16.16 146.249 17.0305C147.208 17.9921 147.674 19.3623 147.674 21.2164C147.674 22.9606 147.196 24.271 146.208 25.2264ZM49.4161 10.3965L60.7868 10.4248V10.4279C65.9771 10.3399 68.8578 12.1155 70.3633 13.6271C72.2383 15.5063 73.1881 18.1273 73.1881 21.2196C73.1881 24.3119 72.1979 26.8323 70.2422 28.7147C67.138 31.7033 62.5438 31.9704 60.9948 31.9704C60.8153 31.9704 60.6775 31.9654 60.5859 31.9621H60.5858H60.5858L60.554 31.961H49.4254C49.056 31.961 48.7549 31.6561 48.7549 31.279V11.0784C48.7549 10.7045 49.0498 10.3996 49.4161 10.3965ZM60.7434 27.1905C61.8671 27.2502 65.2041 27.0114 67.0449 25.2264C68.032 24.271 68.5101 22.9606 68.5101 21.2164C68.5101 19.3623 68.0445 17.9921 67.0853 17.0305C66.2161 16.16 64.4312 15.1387 60.8706 15.1984H60.6533C60.048 15.1984 56.6613 15.2329 54.0941 15.2612C53.7247 15.2675 53.4329 15.5723 53.4329 15.9463V26.5023C53.4329 26.8794 53.734 27.1874 54.1034 27.1905H60.7434ZM181.885 29.9144L175.633 26.1967C174.792 25.697 175.047 24.4337 175.894 24.2043H175.885C178.471 23.4846 179.687 21.8128 179.687 18.4156V16.9386C179.687 11.7847 177.31 10.4963 171.483 10.4963H156.533C155.99 10.4963 155.552 10.9488 155.552 11.5082V30.9137C155.552 31.47 155.99 31.9225 156.533 31.9225H159.162C159.678 31.9225 160.097 31.4919 160.097 30.9577V25.4927C160.094 25.0119 160.469 24.6222 160.935 24.6222C162.062 24.6222 163.843 24.6265 165.206 24.6298L166.016 24.6317C166.578 24.6317 167.125 24.7951 167.6 25.0999L177.893 31.6931C178.129 31.8439 178.399 31.9225 178.675 31.9225H181.354C182.425 31.9225 182.804 30.4612 181.879 29.9112L181.885 29.9144ZM175.056 18.3496C175.056 20.6751 174.171 21.0522 171.182 21.0522H161.143C160.603 21.0522 160.162 20.5997 160.162 20.0403V15.5276C160.162 14.9682 160.6 14.5156 161.143 14.5156H171.182C174.233 14.5156 175.056 14.8928 175.056 17.1869V18.3496ZM120.798 10.4258L123.591 10.4572C124.358 10.4666 124.818 11.3214 124.408 11.9751L114.85 24.6335C114.614 25.0137 114.487 25.4505 114.487 25.8999L114.48 30.7458C114.48 31.302 114.04 31.7514 113.5 31.7514H110.827C110.287 31.7514 109.846 31.302 109.846 30.7458L109.84 25.8999C109.84 25.4505 109.712 25.0137 109.477 24.6335L99.9217 11.9814C99.512 11.3246 99.9714 10.4666 100.741 10.4572L103.529 10.4258C103.768 10.4258 104.178 10.6772 104.178 10.6772L111.64 19.8787C111.929 20.1333 112.354 20.1427 112.655 19.9039L112.686 19.8787L120.149 10.6772C120.329 10.5169 120.559 10.4258 120.798 10.4258Z" fill="#161616"/>
</svg>
