<?xml version="1.0" encoding="UTF-8"?>
<svg id="Layer_2" data-name="Layer 2" xmlns="http://www.w3.org/2000/svg" viewBox="0 0 134.66 133.55">
  <defs>
    <style>
      .cls-1 {
        fill: #e6e7e8;
      }
    </style>
  </defs>
  <g id="Layer_1-2" data-name="Layer 1">
    <path class="cls-1" d="M127.95,26.17c-4.48-8.18-10.78-14.56-18.91-19.14C100.91,2.45,91.59,.1,81.1,0h-28.09c-3.92,0-7.1,3.18-7.1,7.1v12.92c0,3.34-2.33,6.21-5.59,6.93-5.26,1.16-10.15,3.02-14.68,5.57-8.13,4.58-14.43,10.96-18.91,19.14C2.24,59.84,0,69.23,0,79.83s2.24,19.79,6.71,27.86c4.48,8.08,10.78,14.38,18.91,18.91,8.13,4.53,17.44,6.85,27.94,6.95h28.1c3.92,0,7.1-3.18,7.1-7.1v-12.9c0-3.35,2.34-6.22,5.61-6.93,5.25-1.15,10.14-2.98,14.67-5.5,8.13-4.53,14.44-10.83,18.91-18.91,4.48-8.08,6.72-17.37,6.72-27.86s-2.24-19.99-6.72-28.17Zm-46.35,44.34l14.9,14.9c2.06,2.06,2.06,5.4,0,7.46l-3.08,3.08c-2.06,2.06-5.4,2.06-7.46,0l-14.9-14.9c-2.06-2.06-5.4-2.06-7.46,0l-14.91,14.9c-2.06,2.06-5.4,2.06-7.46,0l-3.08-3.08c-2.06-2.06-2.06-5.4,0-7.46l14.91-14.9c2.06-2.06,2.06-5.4,0-7.46l-14.91-14.9c-2.06-2.06-2.06-5.4,0-7.46l3.08-3.08c2.06-2.06,5.4-2.06,7.46,0l14.91,14.9c2.06,2.06,5.4,2.06,7.46,0l14.9-14.9c2.06-2.06,5.4-2.06,7.46,0l3.08,3.08c2.06,2.06,2.06,5.4,0,7.46l-14.9,14.9c-2.06,2.06-2.06,5.4,0,7.46Z"/>
  </g>
</svg>