<?xml version="1.0" encoding="UTF-8"?>
<svg id="Layer_2" data-name="Layer 2" xmlns="http://www.w3.org/2000/svg" viewBox="0 0 72.31 68.41">
  <defs>
    <style>
      .cls-1 {
        fill: #1c1c1c;
      }
    </style>
  </defs>
  <g id="Layer_1-2" data-name="Layer 1">
    <path class="cls-1" d="M69.15,55.47H25.54c-8.74,0-10.71-2.21-10.71-10.43v-1.59c0-1.78,1.41-3.23,3.16-3.23h27.58c1.75,0,3.16-1.44,3.16-3.23v-5.68c0-1.78-1.41-3.23-3.16-3.23H18c-1.75,0-3.16-1.44-3.16-3.23v-1.39c0-7.93,2.06-10.53,10.71-10.53h43.43c1.74,0,3.16-1.44,3.16-3.23V3.23c0-1.78-1.41-3.23-3.16-3.23H25.54C5.8,0,0,6.22,0,23.47v21.47c0,17.26,5.8,23.47,25.54,23.47h43.6c1.74,0,3.16-1.44,3.16-3.23v-6.49c0-1.78-1.41-3.23-3.16-3.23Z"/>
  </g>
</svg>