<svg class="animated-path" width="500" height="500" viewBox="0 0 500 500" xmlns="http://www.w3.org/2000/svg">
  <path 
    class="path-to-animate"
    d="M510.67,33.83C472.66,12.43,429.13,1.48,380.06,1H248.74c-18.33,0-33.19,14.86-33.19,33.19v60.38c0,15.61-10.9,29.02-26.14,32.39-24.59,5.43-47.46,14.11-68.62,26.02-37.99,21.41-67.47,51.23-88.39,89.48C11.46,280.71,1,324.61,1,374.15s10.46,92.49,31.39,130.24c20.92,37.77,50.4,67.23,88.39,88.39,38.01,21.17,81.54,32,130.61,32.47h131.32c18.33,0,33.19-14.86,33.19-33.19v-60.3c0-15.64,10.94-29.06,26.22-32.4,24.56-5.37,47.41-13.95,68.55-25.72,37.99-21.16,67.47-50.62,88.39-88.39,20.92-37.76,31.39-81.17,31.39-130.24s-10.46-93.44-31.39-131.68c-20.92-38.24-50.4-68.06-88.39-89.48Zm-26.9,290.04c-97.37,28.13-129.17,59.92-157.3,157.3-3.1,10.73-18.39,10.73-21.49,0-28.13-97.37-59.92-129.17-157.3-157.3-10.73-3.1-10.73-18.39,0-21.49,97.37-28.13,129.17-59.92,157.3-157.3,3.1-10.73,18.39-10.73,21.49,0,28.13,97.37,59.92,129.17,157.3,157.3,10.73,3.1,10.73,18.39,0,21.49Z" 
    fill="none" 
    stroke="#000000" 
    stroke-width="2"
  />
</svg>
