<?xml version="1.0" encoding="UTF-8"?>
<svg id="Layer_2" data-name="Layer 2" xmlns="http://www.w3.org/2000/svg" viewBox="0 0 86.51 68.19">
  <defs>
    <style>
      .cls-1 {
        fill: #1c1c1c;
      }
    </style>
  </defs>
  <g id="Layer_1-2" data-name="Layer 1">
    <path class="cls-1" d="M84.82,61.79l-20.14-11.83c-2.71-1.59-1.89-5.61,.84-6.34,0,0,0,0-.03,0,8.33-2.29,12.25-7.61,12.25-18.42v-4.7C77.75,4.1,70.08,0,51.32,0H3.16C1.41,0,0,1.44,0,3.22v61.75c0,1.77,1.41,3.21,3.16,3.21H11.63c1.66,0,3.01-1.37,3.01-3.07v-17.39c-.01-1.53,1.2-2.77,2.7-2.77,4.41,0,11.93,.02,16.37,.03,1.81,0,3.57,.52,5.1,1.49l33.16,20.98c.76,.48,1.63,.73,2.52,.73h8.63c3.45,0,4.67-4.65,1.69-6.4ZM62.81,24.99c0,7.4-2.85,8.6-12.48,8.6H17.99c-1.74,0-3.16-1.44-3.16-3.22v-14.36c0-1.78,1.41-3.22,3.16-3.22H50.34c9.83,0,12.48,1.2,12.48,8.5v3.7Z"/>
  </g>
</svg>