<?xml version="1.0" encoding="UTF-8"?>
<svg id="Layer_2" data-name="Layer 2" xmlns="http://www.w3.org/2000/svg" viewBox="0 0 79.87 67.86">
  <defs>
    <style>
      .cls-1 {
        fill: #1c1c1c;
      }
    </style>
  </defs>
  <g id="Layer_1-2" data-name="Layer 1">
    <path class="cls-1" d="M76.75,.1l-9-.1c-.77,0-1.51,.29-2.09,.8l-24.04,29.28-.1,.08c-.97,.76-2.34,.73-3.27-.08h0S14.2,.8,14.2,.8c0,0-1.32-.8-2.09-.8L3.13,.1C.66,.12-.83,2.86,.5,4.95L31.27,45.21c.76,1.21,1.17,2.6,1.17,4.03l.02,15.42c0,1.77,1.42,3.2,3.16,3.2h8.61c1.74,0,3.16-1.43,3.16-3.2l.02-15.42c0-1.43,.41-2.82,1.17-4.03L79.38,4.93c1.32-2.08-.16-4.8-2.63-4.83Z"/>
  </g>
</svg>